<svg width="40" height="40" viewBox="0 0 40 40" fill="none" xmlns="http://www.w3.org/2000/svg">
<path d="M22.9229 8.52637C23.0166 8.55018 23.1093 8.57747 23.2021 8.60352L30 2.67969L28.2666 11.5293C28.3351 11.5962 28.4028 11.6639 28.4697 11.7324L37.3203 10L31.3955 16.7969C31.4216 16.8897 31.4488 16.9824 31.4727 17.0762L40 20L31.4727 22.9229C31.4488 23.0166 31.4216 23.1093 31.3955 23.2021L37.3203 30L28.4697 28.2666C28.4028 28.3351 28.3351 28.4028 28.2666 28.4697L30 37.3203L23.2021 31.3955C23.1092 31.4216 23.0167 31.4498 22.9229 31.4736L20 40L17.0762 31.4736C16.982 31.4497 16.8891 31.4217 16.7959 31.3955L10 37.3203L11.7324 28.4697C11.6639 28.4028 11.5962 28.3351 11.5293 28.2666L2.67969 30L8.60352 23.2031C8.57736 23.1099 8.5493 23.017 8.52539 22.9229L0 20L8.52539 17.0762C8.54923 16.9823 8.57745 16.8898 8.60352 16.7969L2.67969 10L11.5293 11.7324C11.5962 11.6639 11.6639 11.5962 11.7324 11.5293L10 2.67969L16.7969 8.60352C16.8897 8.57747 16.9824 8.55019 17.0762 8.52637L20 0L22.9229 8.52637Z" fill="#FE5B64"/>
</svg>
