<svg width="36" height="36" viewBox="0 0 36 36" fill="none" xmlns="http://www.w3.org/2000/svg">
<path d="M30 0C31.5913 0 33.1174 0.632141 34.2426 1.75736C35.3679 2.88258 36 4.4087 36 6V30C36 31.5913 35.3679 33.1174 34.2426 34.2426C33.1174 35.3679 31.5913 36 30 36H6C4.4087 36 2.88258 35.3679 1.75736 34.2426C0.632141 33.1174 0 31.5913 0 30V6C0 4.4087 0.632141 2.88258 1.75736 1.75736C2.88258 0.632141 4.4087 0 6 0H30ZM30 4H6C5.46957 4 4.96086 4.21071 4.58579 4.58579C4.21071 4.96086 4 5.46957 4 6V30C4 30.5304 4.21071 31.0391 4.58579 31.4142C4.96086 31.7893 5.46957 32 6 32H30C30.5304 32 31.0391 31.7893 31.4142 31.4142C31.7893 31.0391 32 30.5304 32 30V6C32 5.46957 31.7893 4.96086 31.4142 4.58579C31.0391 4.21071 30.5304 4 30 4ZM10 14C10.4899 14.0001 10.9627 14.1799 11.3287 14.5054C11.6948 14.8309 11.9287 15.2795 11.986 15.766L12 16V26C11.9994 26.5098 11.8042 27.0001 11.4543 27.3707C11.1044 27.7414 10.6261 27.9645 10.1172 27.9943C9.60833 28.0242 9.10724 27.8587 8.71634 27.5315C8.32543 27.2043 8.07421 26.7402 8.014 26.234L8 26V16C8 15.4696 8.21071 14.9609 8.58579 14.5858C8.96086 14.2107 9.46957 14 10 14ZM16 12C16.4684 11.9999 16.9219 12.1643 17.2816 12.4643C17.6412 12.7644 17.8842 13.1812 17.968 13.642C18.3708 13.4094 18.7869 13.2003 19.214 13.016C20.548 12.446 22.546 12.132 24.35 12.698C25.296 12.998 26.246 13.558 26.95 14.512C27.58 15.362 27.92 16.396 27.988 17.558L28 18V26C27.9994 26.5098 27.8042 27.0001 27.4543 27.3707C27.1044 27.7414 26.6261 27.9645 26.1172 27.9943C25.6083 28.0242 25.1072 27.8587 24.7163 27.5315C24.3254 27.2043 24.0742 26.7402 24.014 26.234L24 26V18C24 17.34 23.84 17.032 23.736 16.89C23.5865 16.7045 23.3809 16.5726 23.15 16.514C22.454 16.294 21.452 16.41 20.786 16.694C19.786 17.122 18.87 17.794 18.246 18.416L18 18.68V26C17.9994 26.5098 17.8042 27.0001 17.4543 27.3707C17.1044 27.7414 16.6261 27.9645 16.1172 27.9943C15.6083 28.0242 15.1072 27.8587 14.7163 27.5315C14.3254 27.2043 14.0742 26.7402 14.014 26.234L14 26V14C14 13.4696 14.2107 12.9609 14.5858 12.5858C14.9609 12.2107 15.4696 12 16 12ZM10 8C10.5304 8 11.0391 8.21071 11.4142 8.58579C11.7893 8.96086 12 9.46957 12 10C12 10.5304 11.7893 11.0391 11.4142 11.4142C11.0391 11.7893 10.5304 12 10 12C9.46957 12 8.96086 11.7893 8.58579 11.4142C8.21071 11.0391 8 10.5304 8 10C8 9.46957 8.21071 8.96086 8.58579 8.58579C8.96086 8.21071 9.46957 8 10 8Z" fill="black"/>
</svg>
