<svg width="40" height="20" viewBox="0 0 40 20" fill="none" xmlns="http://www.w3.org/2000/svg">
<path d="M30 0H24C22.9 0 22 0.9 22 2C22 3.1 22.9 4 24 4H30C33.3 4 36 6.7 36 10C36 13.3 33.3 16 30 16H24C22.9 16 22 16.9 22 18C22 19.1 22.9 20 24 20H30C35.52 20 40 15.52 40 10C40 4.48 35.52 0 30 0ZM12 10C12 11.1 12.9 12 14 12H26C27.1 12 28 11.1 28 10C28 8.9 27.1 8 26 8H14C12.9 8 12 8.9 12 10ZM16 16H10C6.7 16 4 13.3 4 10C4 6.7 6.7 4 10 4H16C17.1 4 18 3.1 18 2C18 0.9 17.1 0 16 0H10C4.48 0 0 4.48 0 10C0 15.52 4.48 20 10 20H16C17.1 20 18 19.1 18 18C18 16.9 17.1 16 16 16Z" fill="black"/>
</svg>
