<svg width="83" height="83" viewBox="0 0 83 83" fill="none" xmlns="http://www.w3.org/2000/svg">
<path d="M16.81 0L17.1167 3.95316L14.1039 6.52894L17.9646 7.46346L19.48 11.1238L21.5546 7.74725L25.4874 7.43092L22.9257 4.41047L23.8457 0.556732L20.1835 2.06605L16.81 0ZM78.3817 1.56897C77.6161 1.56897 76.882 1.87367 76.3406 2.41605C75.7993 2.95843 75.4952 3.69405 75.4952 4.46108C75.4952 5.22812 75.7993 5.96374 76.3406 6.50611C76.882 7.04849 77.6161 7.35319 78.3817 7.35319C79.1472 7.35319 79.8814 7.04849 80.4227 6.50611C80.964 5.96374 81.2681 5.22812 81.2681 4.46108C81.2681 3.69405 80.964 2.95843 80.4227 2.41605C79.8814 1.87367 79.1472 1.56897 78.3817 1.56897ZM37.9352 3.46692C37.1697 3.46692 36.4355 3.77162 35.8942 4.314C35.3529 4.85638 35.0488 5.592 35.0488 6.35903C35.0488 7.12607 35.3529 7.86169 35.8942 8.40406C36.4355 8.94644 37.1697 9.25114 37.9352 9.25114C38.7008 9.25114 39.4349 8.94644 39.9763 8.40406C40.5176 7.86169 40.8217 7.12607 40.8217 6.35903C40.8217 5.592 40.5176 4.85638 39.9763 4.314C39.4349 3.77162 38.7008 3.46692 37.9352 3.46692ZM71.1114 4.7033C69.4517 5.01781 67.9183 6.00113 66.439 7.28451C65.0679 8.46485 63.787 9.9344 62.7046 11.5233C59.313 12.0673 55.9214 13.4519 53.6484 15.3427C50.7439 17.7286 48.1641 21.8138 46.757 26.0254C45.422 26.5857 44.1591 27.2545 43.1308 27.9776C40.3346 29.9478 38.8914 33.7256 37.827 37.0154C36.7626 40.3233 36.2394 43.2154 36.2394 43.2154L39.4506 43.7938C39.4506 43.7938 39.9377 41.0825 40.9119 38.0277C41.9041 34.9729 43.5819 31.6469 45.007 30.6528C45.2416 30.4901 45.5482 30.3093 45.8189 30.1467C45.7106 31.177 45.7106 32.2073 45.873 33.1834C46.1977 35.244 47.3162 37.2143 49.3006 38.2807C50.7078 39.0399 52.2953 38.8591 53.6303 38.3169C54.9653 37.7565 56.156 36.8347 57.1843 35.7501C58.2126 34.6656 59.0605 33.3822 59.5656 32.0265C60.0707 30.6708 60.2511 29.1344 59.6017 27.7064H59.5836C58.8801 26.1881 57.527 25.212 56.0838 24.7962C54.6406 24.3805 53.0891 24.3986 51.5376 24.6336C51.267 24.6697 51.0145 24.7601 50.7439 24.8143C52.0789 21.9584 53.9911 19.2651 55.705 17.8371C56.8235 16.9152 58.6997 16.0295 60.7021 15.3788C60.4496 16.0657 60.2511 16.7526 60.1609 17.4575C59.8723 19.3555 60.2872 21.4161 61.8026 22.826C62.9031 23.8382 64.3824 24.0009 65.6813 23.784C66.9621 23.5671 68.2069 22.9887 69.3254 22.2476C70.4439 21.4884 71.4361 20.5485 72.1397 19.4458C72.8433 18.3432 73.3123 16.9333 72.8613 15.5234V15.5053C72.266 13.6851 70.7867 12.4343 69.145 11.8414C68.4414 11.5883 67.7018 11.4455 66.9441 11.3606C67.4673 10.7713 68.0085 10.22 68.5497 9.74823C69.7764 8.6926 71.0212 8.03103 71.7248 7.89908L71.1114 4.7033ZM26.209 11.0388L23.4669 12.7669L29.6908 22.7537L19.516 23.2779L24.2967 33.7256L27.2553 32.3519L24.4591 26.2785L35.3915 25.7181L26.209 11.0388ZM65.2483 14.5292C66.3488 14.5112 67.3229 14.6377 68.0446 14.9088C69.0187 15.2523 69.5058 15.6861 69.7584 16.4995C69.8306 16.6983 69.7945 17.096 69.4156 17.6925C69.0187 18.3071 68.3152 18.9939 67.5214 19.5362C66.7096 20.0785 65.8076 20.4581 65.1401 20.5665C64.4545 20.6931 64.1478 20.5665 64.0035 20.44C63.3721 19.8616 63.1917 19.1386 63.3721 17.9275C63.5164 16.9514 63.9674 15.7765 64.6349 14.5654C64.8514 14.5654 65.0499 14.5292 65.2483 14.5292ZM11.811 18.0179C11.0455 18.0179 10.3113 18.3226 9.76998 18.8649C9.22866 19.4073 8.92456 20.1429 8.92456 20.91C8.92456 21.677 9.22866 22.4126 9.76998 22.955C10.3113 23.4974 11.0455 23.8021 11.811 23.8021C12.1902 23.8023 12.5658 23.7277 12.9162 23.5825C13.2666 23.4372 13.585 23.2242 13.8532 22.9556C14.1214 22.6871 14.3342 22.3682 14.4794 22.0172C14.6245 21.6661 14.6993 21.2899 14.6993 20.91C14.6993 20.53 14.6245 20.1538 14.4794 19.8028C14.3342 19.4518 14.1214 19.1329 13.8532 18.8643C13.585 18.5957 13.2666 18.3827 12.9162 18.2375C12.5658 18.0923 12.1902 18.0176 11.811 18.0179ZM76.0545 24.742L73.4567 27.7426L69.5239 27.4172L71.5805 30.8155L70.047 34.4667L73.9077 33.563L76.9024 36.1478L77.2451 32.1892L80.6187 30.1286L76.9745 28.5921L76.0545 24.742ZM53.7746 27.7245C54.2978 27.7426 54.7849 27.8149 55.1637 27.9233C55.9395 28.1403 56.3544 28.4656 56.6431 29.0802C56.8054 29.4236 56.8235 30.0563 56.5168 30.8878C56.2101 31.7373 55.5787 32.7134 54.821 33.5268C54.0633 34.3402 53.1432 34.9909 52.3855 35.2982C51.6278 35.6055 51.1588 35.5874 50.8521 35.4248H50.8341C49.7877 34.8463 49.2826 34.0149 49.0842 32.6772C48.9038 31.5385 49.03 30.0924 49.4089 28.5379C50.2929 28.2306 51.1768 27.9776 52.0247 27.851C52.6561 27.7607 53.2334 27.7245 53.7746 27.7245ZM17.261 37.1058C15.9621 37.0696 15.1503 37.3769 14.6451 37.883C14.14 38.3892 13.8333 39.2026 13.8694 40.504C13.9055 41.8236 14.3385 43.5588 15.1683 45.4929C16.828 49.3792 20.0933 54.0608 24.4771 58.4713C28.8609 62.8637 33.5514 66.1173 37.4301 67.7803C39.3424 68.6117 41.0742 69.0456 42.3912 69.0817C43.7081 69.1359 44.5019 68.8106 45.007 68.3045C45.5122 67.7983 45.8369 67.003 45.7828 65.6835C45.7467 64.364 45.3137 62.6287 44.4839 60.6946C42.8242 56.8264 39.5769 52.1267 35.1931 47.7343C30.8093 43.3238 26.1188 40.0702 22.2401 38.4072C20.3098 37.5758 18.5779 37.1419 17.261 37.1058ZM59.1146 42.7635L53.1613 52.5244L47.9115 47.4812L45.6745 49.8311L53.8107 57.6579L59.9084 47.6801L66.89 53.5185L83 46.6136L81.7372 43.613L67.4312 49.7588L59.1146 42.7635ZM11.5296 45.0591L8.34727 55.5249C15.8178 64.4001 24.5313 69.389 33.9844 72.6426L37.8811 71.4496C37.3219 71.2508 36.7265 71.0158 36.1312 70.7627C31.7293 68.8829 26.8043 65.4123 22.186 60.7669C17.5496 56.1214 14.0859 51.1868 12.2025 46.7763C11.9481 46.1979 11.7244 45.6195 11.5296 45.0591ZM7.23237 59.1943L4.70492 67.5091C9.91677 72.3896 15.3487 74.5948 21.0495 76.5831L28.879 74.1971C21.0855 71.0158 13.7251 66.3704 7.23237 59.1943ZM61.0629 59.4112C60.2974 59.4112 59.5632 59.7159 59.0219 60.2583C58.4806 60.8007 58.1765 61.5363 58.1765 62.3033C58.1765 63.0704 58.4806 63.806 59.0219 64.3484C59.5632 64.8907 60.2974 65.1954 61.0629 65.1954C61.8285 65.1954 62.5627 64.8907 63.104 64.3484C63.6453 63.806 63.9494 63.0704 63.9494 62.3033C63.9494 61.5363 63.6453 60.8007 63.104 60.2583C62.5627 59.7159 61.8285 59.4112 61.0629 59.4112ZM3.66039 70.9616L0 83L15.926 78.1376C11.8182 76.4927 7.66714 74.396 3.66039 70.9616Z" fill="currentColor"/>
</svg>
