<svg width="24" height="24" viewBox="0 0 24 24" fill="none" xmlns="http://www.w3.org/2000/svg">
<path d="M16.34 9.3218C16.4361 9.23224 16.5135 9.12464 16.568 9.00513C16.6225 8.88563 16.6529 8.75656 16.6575 8.62531C16.6621 8.49405 16.6408 8.36318 16.5948 8.24015C16.5488 8.11713 16.4791 8.00437 16.3895 7.90831C16.2999 7.81224 16.1923 7.73476 16.0728 7.68029C15.9533 7.62581 15.8243 7.59541 15.693 7.59081C15.5617 7.58621 15.4309 7.60751 15.3078 7.6535C15.1848 7.69948 15.0721 7.76924 14.976 7.85881L12.05 10.5868L9.32199 7.65981C9.13946 7.47285 8.891 7.36476 8.62979 7.35867C8.36857 7.35258 8.11535 7.44897 7.9243 7.62721C7.73325 7.80545 7.61955 8.05139 7.60753 8.3124C7.59552 8.57341 7.68613 8.82876 7.85999 9.02381L10.588 11.9498L7.66099 14.6778C7.56154 14.7665 7.4808 14.8741 7.42353 14.9944C7.36625 15.1147 7.33359 15.2452 7.32746 15.3783C7.32133 15.5114 7.34186 15.6444 7.38784 15.7694C7.43382 15.8944 7.50432 16.009 7.59521 16.1065C7.6861 16.2039 7.79554 16.2822 7.9171 16.3367C8.03866 16.3912 8.16989 16.4209 8.30309 16.424C8.43628 16.4271 8.56876 16.4036 8.69273 16.3548C8.8167 16.306 8.92966 16.2329 9.02499 16.1398L11.951 13.4128L14.679 16.3388C14.7671 16.4401 14.8747 16.5226 14.9953 16.5814C15.116 16.6403 15.2472 16.6742 15.3813 16.6812C15.5153 16.6883 15.6494 16.6682 15.7756 16.6223C15.9017 16.5764 16.0173 16.5056 16.1155 16.414C16.2137 16.3225 16.2924 16.2121 16.347 16.0895C16.4017 15.9669 16.431 15.8345 16.4334 15.7003C16.4358 15.5661 16.4111 15.4328 16.3609 15.3083C16.3107 15.1839 16.2359 15.0708 16.141 14.9758L13.414 12.0498L16.34 9.3218Z" fill="white"/>
<path fill-rule="evenodd" clip-rule="evenodd" d="M1 12C1 5.925 5.925 1 12 1C18.075 1 23 5.925 23 12C23 18.075 18.075 23 12 23C5.925 23 1 18.075 1 12ZM12 21C10.8181 21 9.64778 20.7672 8.55585 20.3149C7.46392 19.8626 6.47177 19.1997 5.63604 18.364C4.80031 17.5282 4.13738 16.5361 3.68508 15.4442C3.23279 14.3522 3 13.1819 3 12C3 10.8181 3.23279 9.64778 3.68508 8.55585C4.13738 7.46392 4.80031 6.47177 5.63604 5.63604C6.47177 4.80031 7.46392 4.13738 8.55585 3.68508C9.64778 3.23279 10.8181 3 12 3C14.3869 3 16.6761 3.94821 18.364 5.63604C20.0518 7.32387 21 9.61305 21 12C21 14.3869 20.0518 16.6761 18.364 18.364C16.6761 20.0518 14.3869 21 12 21Z" fill="white"/>
</svg>
