<svg width="16" height="16" viewBox="0 0 16 16" fill="none" xmlns="http://www.w3.org/2000/svg">
<g clip-path="url(#clip0_1464_185)">
<path d="M4 7.33301C4 5.44767 4 4.50434 4.586 3.91901C5.17133 3.33301 6.11467 3.33301 8 3.33301H10C11.8853 3.33301 12.8287 3.33301 13.414 3.91901C14 4.50434 14 5.44767 14 7.33301V10.6663C14 12.5517 14 13.495 13.414 14.0803C12.8287 14.6663 11.8853 14.6663 10 14.6663H8C6.11467 14.6663 5.17133 14.6663 4.586 14.0803C4 13.495 4 12.5517 4 10.6663V7.33301Z" stroke="white"/>
<path d="M4 12.6663C3.46957 12.6663 2.96086 12.4556 2.58579 12.0806C2.21071 11.7055 2 11.1968 2 10.6663V6.66634C2 4.15234 2 2.89501 2.78133 2.11434C3.56267 1.33367 4.81933 1.33301 7.33333 1.33301H10C10.5304 1.33301 11.0391 1.54372 11.4142 1.91879C11.7893 2.29387 12 2.80257 12 3.33301" stroke="white"/>
</g>
<defs>
<clipPath id="clip0_1464_185">
<rect width="16" height="16" fill="white"/>
</clipPath>
</defs>
</svg>
