<svg width="40" height="40" viewBox="0 0 40 40" fill="none" xmlns="http://www.w3.org/2000/svg">
<path fill-rule="evenodd" clip-rule="evenodd" d="M20.0001 12.4248C17.9909 12.4248 16.0639 13.223 14.6432 14.6437C13.2225 16.0644 12.4243 17.9913 12.4243 20.0006C12.4243 22.0098 13.2225 23.9367 14.6432 25.3574C16.0639 26.7782 17.9909 27.5763 20.0001 27.5763C22.0093 27.5763 23.9362 26.7782 25.3569 25.3574C26.7777 23.9367 27.5758 22.0098 27.5758 20.0006C27.5758 17.9913 26.7777 16.0644 25.3569 14.6437C23.9362 13.223 22.0093 12.4248 20.0001 12.4248ZM15.4546 20.0006C15.4546 21.2061 15.9335 22.3622 16.786 23.2147C17.6384 24.0671 18.7945 24.546 20.0001 24.546C21.2056 24.546 22.3618 24.0671 23.2142 23.2147C24.0666 22.3622 24.5455 21.2061 24.5455 20.0006C24.5455 18.795 24.0666 17.6389 23.2142 16.7864C22.3618 15.934 21.2056 15.4551 20.0001 15.4551C18.7945 15.4551 17.6384 15.934 16.786 16.7864C15.9335 17.6389 15.4546 18.795 15.4546 20.0006Z" fill="currentColor"/>
<path d="M29.0903 9.39258C28.6885 9.39258 28.3031 9.55221 28.019 9.83636C27.7348 10.1205 27.5752 10.5059 27.5752 10.9077C27.5752 11.3096 27.7348 11.695 28.019 11.9791C28.3031 12.2632 28.6885 12.4229 29.0903 12.4229C29.4922 12.4229 29.8776 12.2632 30.1617 11.9791C30.4459 11.695 30.6055 11.3096 30.6055 10.9077C30.6055 10.5059 30.4459 10.1205 30.1617 9.83636C29.8776 9.55221 29.4922 9.39258 29.0903 9.39258Z" fill="currentColor"/>
<path fill-rule="evenodd" clip-rule="evenodd" d="M9.39361 3.33301C7.78624 3.33301 6.2447 3.97153 5.10812 5.10812C3.97153 6.2447 3.33301 7.78624 3.33301 9.39361V30.6057C3.33301 32.2131 3.97153 33.7546 5.10812 34.8912C6.2447 36.0278 7.78624 36.6663 9.39361 36.6663H30.6057C32.2131 36.6663 33.7546 36.0278 34.8912 34.8912C36.0278 33.7546 36.6663 32.2131 36.6663 30.6057V9.39361C36.6663 7.78624 36.0278 6.2447 34.8912 5.10812C33.7546 3.97153 32.2131 3.33301 30.6057 3.33301H9.39361ZM30.6057 6.36331H9.39361C8.58993 6.36331 7.81916 6.68257 7.25087 7.25087C6.68257 7.81916 6.36331 8.58993 6.36331 9.39361V30.6057C6.36331 31.4094 6.68257 32.1802 7.25087 32.7485C7.81916 33.3168 8.58993 33.636 9.39361 33.636H30.6057C31.4094 33.636 32.1802 33.3168 32.7485 32.7485C33.3168 32.1802 33.636 31.4094 33.636 30.6057V9.39361C33.636 8.58993 33.3168 7.81916 32.7485 7.25087C32.1802 6.68257 31.4094 6.36331 30.6057 6.36331Z" fill="currentColor"/>
</svg>
