<svg width="40" height="40" viewBox="0 0 40 40" fill="none" xmlns="http://www.w3.org/2000/svg">
<path d="M31.8576 16.1114C32.7372 16.4239 33.5416 16.858 34.2708 17.4135C34.9999 17.9691 35.6249 18.6114 36.1458 19.3406C36.6666 20.0698 37.0659 20.8684 37.3437 21.7364C37.6215 22.6045 37.7662 23.5073 37.7777 24.4448C37.7777 25.6716 37.5462 26.8232 37.0833 27.8996C36.6203 28.976 35.9837 29.9135 35.1736 30.7121C34.3634 31.5107 33.4201 32.1473 32.3437 32.6219C31.2673 33.0964 30.1157 33.3337 28.8888 33.3337H19.9999C18.7731 33.3337 17.6215 33.1022 16.5451 32.6392C15.4687 32.1763 14.5312 31.5397 13.7326 30.7295C12.934 29.9193 12.2974 28.976 11.8229 27.8996C11.3483 26.8232 11.1111 25.6716 11.1111 24.4448C11.1111 23.2179 11.3425 22.0663 11.8055 20.9899C12.2685 19.9135 12.905 18.976 13.7152 18.1774C14.5254 17.3788 15.4687 16.7422 16.5451 16.2677C17.6215 15.7931 18.7731 15.5559 19.9999 15.5559H22.9687C22.9687 15.961 22.8935 16.3429 22.743 16.7017C22.5925 17.0605 22.3784 17.373 22.1006 17.6392C21.8229 17.9054 21.5046 18.1138 21.1458 18.2642C20.787 18.4147 20.405 18.4957 19.9999 18.5073C19.1782 18.5073 18.4085 18.6635 17.6909 18.976C16.9733 19.2885 16.3483 19.711 15.8159 20.2434C15.2835 20.7758 14.8611 21.4066 14.5486 22.1357C14.2361 22.8649 14.0798 23.6346 14.0798 24.4448C14.0798 25.2665 14.2361 26.0362 14.5486 26.7538C14.8611 27.4714 15.2835 28.0964 15.8159 28.6288C16.3483 29.1612 16.9733 29.5837 17.6909 29.8962C18.4085 30.2087 19.1782 30.3649 19.9999 30.3649H28.8888C29.699 30.3649 30.4629 30.2087 31.1805 29.8962C31.8981 29.5837 32.5289 29.1612 33.0729 28.6288C33.6168 28.0964 34.0393 27.4714 34.3402 26.7538C34.6412 26.0362 34.7974 25.2665 34.809 24.4448C34.809 23.38 34.5428 22.4077 34.0104 21.5281C33.478 20.6485 32.7604 19.9367 31.8576 19.3927V16.1114ZM5.19092 15.5559C5.19092 16.6091 5.45712 17.5756 5.98953 18.4552C6.52194 19.3348 7.23953 20.0524 8.14231 20.608V23.8892C7.26268 23.5767 6.45828 23.1427 5.72911 22.5871C4.99995 22.0316 4.37495 21.3892 3.85411 20.66C3.33328 19.9309 2.93397 19.1323 2.6562 18.2642C2.37842 17.3962 2.23374 16.4934 2.22217 15.5559C2.22217 14.329 2.45365 13.1774 2.91661 12.101C3.37958 11.0246 4.01615 10.0871 4.82633 9.28852C5.63652 8.48991 6.57981 7.85333 7.6562 7.3788C8.73258 6.90426 9.88421 6.66699 11.1111 6.66699H19.9999C21.2268 6.66699 22.3784 6.89847 23.4548 7.36144C24.5312 7.8244 25.4687 8.46097 26.2673 9.27116C27.0659 10.0813 27.7025 11.0246 28.177 12.101C28.6516 13.1774 28.8888 14.329 28.8888 15.5559C28.8888 16.7827 28.6574 17.9344 28.1944 19.0107C27.7314 20.0871 27.0949 21.0246 26.2847 21.8232C25.4745 22.6219 24.5312 23.2584 23.4548 23.733C22.3784 24.2075 21.2268 24.4448 19.9999 24.4448H17.0312C17.0312 24.0397 17.1064 23.6577 17.2569 23.2989C17.4074 22.9401 17.6215 22.6276 17.8993 22.3614C18.177 22.0952 18.4895 21.8811 18.8368 21.7191C19.184 21.557 19.5717 21.476 19.9999 21.476C20.8101 21.476 21.574 21.3198 22.2916 21.0073C23.0092 20.6948 23.64 20.2723 24.184 19.7399C24.728 19.2075 25.1504 18.5825 25.4513 17.8649C25.7523 17.1473 25.9085 16.3776 25.9201 15.5559C25.9201 14.7457 25.7696 13.9818 25.4687 13.2642C25.1678 12.5466 24.7453 11.9158 24.2013 11.3719C23.6574 10.8279 23.0266 10.3996 22.309 10.0871C21.5914 9.77463 20.8217 9.61838 19.9999 9.61838H11.1111C10.2893 9.61838 9.51962 9.77463 8.80203 10.0871C8.08444 10.3996 7.45944 10.8221 6.92703 11.3545C6.39462 11.8869 5.97217 12.5177 5.65967 13.2469C5.34717 13.976 5.19092 14.7457 5.19092 15.5559Z" fill="currentColor"/>
</svg>
